# xmcd
#
# Track frame offsets: 
#        182
#        33212
#        75130
#        116151
#        167372
#        201014
#        231376
#
# Disc length: 3488 seconds
#
# Revision: 1
# Processed by: cddbd v1.5.2PL0 Copyright (c) Steve Scherf et al.
# Submitted via: ExactAudioCopy v0.99pb5
#
DISCID=480d9e07
DTITLE=Kamal - Whale Meditation
DYEAR=2008
DGENRE=New Age
TTITLE0=For Absent Friends (Raga Kaushi Bhairavi)
TTITLE1=Desiderata
TTITLE2=Whispering Whales
TTITLE3=Arctic Fire
TTITLE4=As Above, So Below
TTITLE5=New World
TTITLE6=Whale Rider
EXTD=YEAR: 2008
EXTT0=
EXTT1=
EXTT2=
EXTT3=
EXTT4=
EXTT5=
EXTT6=
PLAYORDER=
